<svg width="51" height="52" viewBox="0 0 51 52" fill="none" xmlns="http://www.w3.org/2000/svg">
<path d="M14.5803 39.3112C12.6872 39.3112 11.0793 39.2075 9.75675 39C8.43414 38.7666 7.34494 38.3646 6.48915 37.7941C5.65928 37.2236 4.99798 36.4326 4.50524 35.4212C4.03844 34.3839 3.70131 33.0742 3.49384 31.4923C3.31231 29.8844 3.22154 27.9265 3.22154 25.6184C3.22154 23.3103 3.31231 21.3653 3.49384 19.7834C3.70131 18.1755 4.05141 16.8659 4.54414 15.8545C5.03688 14.8172 5.71114 14.0132 6.56694 13.4427C7.42274 12.8722 8.49898 12.4832 9.79564 12.2757C11.1182 12.0423 12.7131 11.9256 14.5803 11.9256C15.4621 11.9256 16.4086 11.9645 17.42 12.0423C18.4314 12.1201 19.4169 12.2109 20.3764 12.3146C21.3619 12.4183 22.2436 12.548 23.0216 12.7036V15.4266C22.1918 15.2969 21.3489 15.1932 20.4931 15.1154C19.6373 15.0117 18.8334 14.9339 18.0813 14.882C17.3552 14.8301 16.7328 14.8042 16.2141 14.8042C14.6063 14.8042 13.2318 14.8431 12.0907 14.9209C10.9756 14.9987 10.055 15.2062 9.32885 15.5433C8.60271 15.8804 8.04515 16.438 7.65615 17.216C7.26715 17.9681 6.98188 19.0184 6.80035 20.3669C6.64474 21.7154 6.56694 23.4659 6.56694 25.6184C6.56694 27.5115 6.61881 29.1064 6.72254 30.4031C6.82628 31.6738 7.03374 32.7112 7.34495 33.5151C7.68208 34.319 8.13591 34.9414 8.70644 35.3823C9.30291 35.8232 10.0809 36.1214 11.0404 36.277C12.0259 36.4067 13.2318 36.4715 14.6581 36.4715C15.2027 36.4715 15.7992 36.4585 16.4475 36.4326C17.0959 36.4067 17.7312 36.3678 18.3536 36.3159C18.976 36.264 19.4947 36.2122 19.9096 36.1603V27.4467H13.8412V24.607H23.1383V38.5332C22.2825 38.6888 21.336 38.8314 20.2986 38.9611C19.2872 39.0648 18.2758 39.1426 17.2644 39.1945C16.279 39.2723 15.3843 39.3112 14.5803 39.3112ZM28.109 39V12.2368H40.557C42.3205 12.2368 43.7209 12.5091 44.7582 13.0537C45.7956 13.5983 46.5347 14.3763 46.9755 15.3877C47.4164 16.3732 47.6368 17.5661 47.6368 18.9665C47.6368 20.1076 47.4812 21.119 47.17 22.0007C46.8588 22.8565 46.3661 23.5567 45.6918 24.1013C45.0435 24.6459 44.1747 25.0349 43.0855 25.2683V25.4239C44.4081 25.6573 45.4195 26.0852 46.1197 26.7076C46.8199 27.3041 47.2997 28.0561 47.559 28.9638C47.8184 29.8715 47.948 30.8699 47.948 31.9591C47.948 32.8927 47.8313 33.7874 47.5979 34.6432C47.3905 35.499 47.0144 36.2511 46.4698 36.8994C45.9512 37.5477 45.1991 38.0664 44.2136 38.4554C43.2282 38.8185 41.9574 39 40.4014 39H28.109ZM31.4544 36.1214H39.6234C40.8942 36.1214 41.8926 35.9788 42.6187 35.6935C43.3449 35.3823 43.8506 34.8896 44.1358 34.2153C44.447 33.5151 44.6026 32.6204 44.6026 31.5312C44.6026 30.4161 44.4341 29.5214 44.0969 28.8471C43.7857 28.1469 43.2671 27.6542 42.5409 27.3689C41.8148 27.0577 40.8423 26.9021 39.6234 26.9021H31.4544V36.1214ZM31.4544 23.9846H39.4678C40.557 23.9846 41.4517 23.829 42.1519 23.5178C42.8781 23.2066 43.4097 22.7268 43.7468 22.0785C44.1099 21.4042 44.2914 20.5744 44.2914 19.5889C44.2914 18.4997 44.1488 17.6309 43.8635 16.9826C43.6042 16.3343 43.1244 15.8675 42.4242 15.5822C41.724 15.271 40.7386 15.1154 39.4678 15.1154H31.4544V23.9846Z" fill="black"/>
<rect x="28" y="43" width="16" height="3" fill="black"/>
</svg>
