<svg width="128" height="24" viewBox="0 0 128 24" fill="none" xmlns="http://www.w3.org/2000/svg">
<path d="M13.9589 0.363647L13.5375 3.56842H9.03379V17.9899H4.71443V3.56842H0V0.363647H13.9589Z" fill="#0D0D0D"></path>
<path d="M22.4071 4.10254C22.9163 4.10254 23.3816 4.16189 23.803 4.28059L23.1446 8.17209C22.6178 8.0534 22.1964 7.99405 21.8804 7.99405C21.0551 7.99405 20.423 8.27383 19.984 8.83339C19.5626 9.376 19.229 10.1984 18.9832 11.3006V17.9899H14.8219V4.48406H18.4565L18.7989 7.10384C19.1149 6.17123 19.589 5.4421 20.2211 4.91645C20.8707 4.37385 21.5994 4.10254 22.4071 4.10254Z" fill="#0D0D0D"></path>
<path d="M35.5814 14.0729C35.5814 14.5816 35.6517 14.9547 35.7921 15.1921C35.9502 15.4295 36.196 15.6075 36.5296 15.7262L35.6605 18.346C34.8001 18.2781 34.0978 18.1001 33.5534 17.8118C33.0091 17.5066 32.5877 17.0318 32.2892 16.3875C31.3762 17.744 29.9715 18.4223 28.0752 18.4223C26.6881 18.4223 25.5819 18.0323 24.7567 17.2523C23.9315 16.4723 23.5188 15.4549 23.5188 14.2001C23.5188 12.7249 24.0807 11.5973 25.2044 10.8173C26.3282 10.0373 27.9523 9.6473 30.0769 9.6473H31.4991V9.06231C31.4991 8.26535 31.3235 7.72274 30.9724 7.43449C30.6212 7.12927 30.0067 6.97666 29.1287 6.97666C28.6722 6.97666 28.1191 7.04449 27.4695 7.18014C26.8198 7.29883 26.1526 7.4684 25.4678 7.68883L24.5197 5.04363C25.3976 4.72145 26.2931 4.47559 27.2061 4.30602C28.1367 4.13646 28.997 4.05167 29.7872 4.05167C31.7888 4.05167 33.255 4.45015 34.1856 5.2471C35.1161 6.04406 35.5814 7.23949 35.5814 8.83339V14.0729ZM29.2868 15.5481C30.2349 15.5481 30.9724 15.1158 31.4991 14.251V11.8601H30.472C29.5238 11.8601 28.8127 12.0212 28.3386 12.3434C27.8821 12.6655 27.6538 13.1658 27.6538 13.844C27.6538 14.3866 27.7943 14.8105 28.0752 15.1158C28.3737 15.404 28.7776 15.5481 29.2868 15.5481Z" fill="#0D0D0D"></path>
<path d="M44.9537 4.05167C45.9194 4.05167 46.7886 4.18733 47.5611 4.45863C48.3337 4.72993 49.0624 5.14537 49.7471 5.70493L47.9562 8.09579C47.0783 7.45144 46.1916 7.12927 45.2961 7.12927C44.3655 7.12927 43.6632 7.45992 43.1891 8.12122C42.715 8.78252 42.478 9.85078 42.478 11.326C42.478 12.7503 42.715 13.7592 43.1891 14.3527C43.6632 14.9462 44.3479 15.2429 45.2434 15.2429C45.7175 15.2429 46.1477 15.1751 46.534 15.0395C46.9202 14.8868 47.3855 14.6495 47.9299 14.3273L49.7471 16.8199C48.36 17.8881 46.7886 18.4223 45.0327 18.4223C43.6105 18.4223 42.3814 18.134 41.3455 17.5575C40.3095 16.964 39.5106 16.1416 38.9487 15.0903C38.3869 14.0221 38.1059 12.7758 38.1059 11.3514C38.1059 9.92708 38.3869 8.66383 38.9487 7.56166C39.5106 6.45949 40.3095 5.60319 41.3455 4.99276C42.3814 4.36537 43.5842 4.05167 44.9537 4.05167Z" fill="#0D0D0D"></path>
<path d="M63.1789 10.9699C63.1789 11.5295 63.1526 12.0127 63.0999 12.4197H54.4348C54.5753 13.5558 54.9089 14.3527 55.4356 14.8105C55.9624 15.2684 56.6911 15.4973 57.6217 15.4973C58.1835 15.4973 58.7279 15.404 59.2546 15.2175C59.7814 15.014 60.352 14.7088 60.9665 14.3018L62.6785 16.5401C61.0456 17.7949 59.2283 18.4223 57.2266 18.4223C54.9616 18.4223 53.2233 17.7779 52.0118 16.4892C50.8002 15.2005 50.1945 13.471 50.1945 11.3006C50.1945 9.92708 50.4491 8.69774 50.9583 7.61253C51.4675 6.51036 52.2137 5.64558 53.197 5.01819C54.1802 4.37385 55.3566 4.05167 56.7262 4.05167C58.7454 4.05167 60.3257 4.66211 61.467 5.88297C62.6082 7.10383 63.1789 8.79948 63.1789 10.9699ZM59.0966 9.82534C59.0615 7.75666 58.3064 6.72231 56.8315 6.72231C56.1116 6.72231 55.5498 6.97666 55.1459 7.48536C54.7597 7.99405 54.5226 8.83339 54.4348 10.0034H59.0966V9.82534Z" fill="#0D0D0D"></path>
<path d="M70.4417 4.05167C71.4425 4.05167 72.3819 4.1958 73.2598 4.48406C74.1377 4.77232 74.9103 5.17928 75.5775 5.70493L74.0499 7.96861C72.9086 7.2734 71.7586 6.92579 70.5997 6.92579C70.0554 6.92579 69.634 7.01905 69.3355 7.20557C69.0546 7.37514 68.9141 7.62101 68.9141 7.94318C68.9141 8.19753 68.9756 8.40948 69.0985 8.57905C69.2389 8.73165 69.5111 8.89274 69.9149 9.06231C70.3188 9.23187 70.9421 9.43535 71.7849 9.67274C73.2422 10.0797 74.3221 10.6138 75.0244 11.2751C75.7443 11.9195 76.1043 12.8182 76.1043 13.9712C76.1043 14.8868 75.8321 15.6838 75.2878 16.3621C74.7435 17.0234 73.9973 17.532 73.0491 17.8881C72.101 18.2442 71.0475 18.4223 69.8886 18.4223C68.7122 18.4223 67.6148 18.2442 66.5964 17.8881C65.5956 17.532 64.744 17.0403 64.0417 16.4129L66.0697 14.2255C67.2461 15.1073 68.4839 15.5481 69.7832 15.5481C70.4154 15.5481 70.907 15.4379 71.2582 15.2175C71.6269 14.9971 71.8112 14.6834 71.8112 14.2764C71.8112 13.9542 71.741 13.6999 71.6005 13.5134C71.4601 13.3269 71.1879 13.1573 70.7841 13.0047C70.3802 12.8351 69.7394 12.6316 68.8614 12.3942C67.4743 12.0042 66.4384 11.4616 65.7536 10.7664C65.0688 10.0712 64.7264 9.20643 64.7264 8.17209C64.7264 7.39209 64.9547 6.69688 65.4112 6.08645C65.8853 5.45906 66.5525 4.96732 67.4129 4.61124C68.2908 4.2382 69.3004 4.05167 70.4417 4.05167Z" fill="#0D0D0D"></path>
<path d="M87.0185 17.354C86.5093 17.6931 85.9123 17.956 85.2276 18.1425C84.5603 18.329 83.8931 18.4223 83.2259 18.4223C80.1707 18.4053 78.6432 16.7775 78.6432 13.5388V7.28188H76.6678V4.48406H78.6432V1.55908L82.8045 1.10125V4.48406H86.0177L85.5699 7.28188H82.8045V13.4879C82.8045 14.1153 82.9099 14.5647 83.1206 14.836C83.3313 15.1073 83.6649 15.2429 84.1214 15.2429C84.5955 15.2429 85.0959 15.0988 85.6226 14.8105L87.0185 17.354Z" fill="#0D0D0D"></path>
<path d="M94.0023 4.05167C96.1444 4.05167 97.8212 4.68754 99.0328 5.95927C100.244 7.21405 100.85 8.97752 100.85 11.2497C100.85 12.691 100.569 13.9542 100.007 15.0395C99.463 16.1077 98.6728 16.9386 97.6369 17.5321C96.6185 18.1255 95.407 18.4223 94.0023 18.4223C91.8777 18.4223 90.2009 17.7949 88.9718 16.5401C87.7603 15.2684 87.1545 13.4964 87.1545 11.2243C87.1545 9.78295 87.4267 8.52818 87.971 7.45992C88.5329 6.37471 89.323 5.53536 90.3414 4.94189C91.3773 4.34841 92.5976 4.05167 94.0023 4.05167ZM94.0023 7.0021C93.1595 7.0021 92.5274 7.3497 92.106 8.04492C91.6846 8.72318 91.4739 9.78295 91.4739 11.2243C91.4739 12.6995 91.6758 13.7762 92.0797 14.4545C92.5011 15.1327 93.1419 15.4718 94.0023 15.4718C94.8451 15.4718 95.4772 15.1327 95.8986 14.4545C96.32 13.7592 96.5307 12.691 96.5307 11.2497C96.5307 9.77448 96.32 8.69774 95.8986 8.01948C95.4948 7.34122 94.8627 7.0021 94.0023 7.0021Z" fill="#0D0D0D"></path>
<path d="M110.911 4.10254C111.42 4.10254 111.885 4.16189 112.306 4.28059L111.648 8.17209C111.121 8.0534 110.7 7.99405 110.384 7.99405C109.559 7.99405 108.926 8.27383 108.488 8.83339C108.066 9.376 107.733 10.1984 107.487 11.3006V17.9899H103.325V4.48406H106.96L107.302 7.10384C107.618 6.17123 108.092 5.4421 108.725 4.91645C109.374 4.37385 110.103 4.10254 110.911 4.10254Z" fill="#0D0D0D"></path>
<path d="M122.583 18.0153C122.021 19.7618 121.099 21.1014 119.818 22.034C118.553 22.9835 116.85 23.5177 114.708 23.6364L114.26 20.8131C115.595 20.6436 116.578 20.3553 117.21 19.9483C117.86 19.5414 118.378 18.8886 118.764 17.9899H117.342L113.075 4.48406H117.5L118.751 9.95252L119.818 13.5485L122.741 4.48406H127.034L122.583 18.0153Z" fill="#0D0D0D"></path>
</svg>